PathFileType	4	(X/Y/Z)	C:/Users/opensim2020/Desktop/walking_exp_matlab/subject02_walking05_straight_01.trc																																																																																																																												
DataRate	CameraRate	NumFrames	NumMarkers	Units	OrigDataRate	OrigDataStartFrame	OrigNumFrames																																																																																																																								
100	100	4	42	mm	100	673	190																																																																																																																								
Frame#	Time	LFHD			RFHD			LBHD			RBHD			C7			T10			CLAV			STRN			RBAK			LSHO			LUPA			LELB			LFRM			LWRA			LWRB			LFIN			RSHO			RUPA			RELB			RFRM			RWRA			RWRB			RFIN			LASI			RASI			LPSI			RPSI			LTHI			LKNE			LTIB			LANK			LHEE			LTOE			RTHI			RKNE			RTIB			RANK			RHEE			RTOE			*39			*40			*41		
		X1	Y1	Z1	X2	Y2	Z2	X3	Y3	Z3	X4	Y4	Z4	X5	Y5	Z5	X6	Y6	Z6	X7	Y7	Z7	X8	Y8	Z8	X9	Y9	Z9	X10	Y10	Z10	X11	Y11	Z11	X12	Y12	Z12	X13	Y13	Z13	X14	Y14	Z14	X15	Y15	Z15	X16	Y16	Z16	X17	Y17	Z17	X18	Y18	Z18	X19	Y19	Z19	X20	Y20	Z20	X21	Y21	Z21	X22	Y22	Z22	X23	Y23	Z23	X24	Y24	Z24	X25	Y25	Z25	X26	Y26	Z26	X27	Y27	Z27	X28	Y28	Z28	X29	Y29	Z29	X30	Y30	Z30	X31	Y31	Z31	X32	Y32	Z32	X33	Y33	Z33	X34	Y34	Z34	X35	Y35	Z35	X36	Y36	Z36	X37	Y37	Z37	X38	Y38	Z38	X39	Y39	Z39	X40	Y40	Z40	X41	Y41	Z41	X42	Y42	Z42
																																																																																																																															
24	0.23	-930.03693	1720.81885	-1065.48303	-932.13623	1701.90564	-920.01355	-1056.82947	1643.54248	-1075.61011	-1073.8584	1622.22949	-934.01129	-1112.65979	1508.50793	-994.93811	-1182.98157	1238.07581	-981.94165	-978.71106	1431.30847	-1015.33264	-936.97815	1257.13123	-1001.73212	-1173.01575	1342.79797	-918.87238	-1057.28552	1471.54675	-1180.02393	-1101.77808	1277.48108	-1260.35791	-1126.44006	1139.52478	-1280.79919	-1116.57288	1007.07581	-1302.64624	-1047.87378	886.31146	-1291.77942	-1100.8678	884.79822	-1310.99158	-1077.25403	823.18872	-1322.12708	-1012.74335	1477.18311	-817.34106	-1000.20081	1286.46814	-726.08704	-950.09552	1145.88074	-712.73376	-885.23206	1042.53259	-708.87067	-805.47845	938.54443	-745.95667	-842.07562	919.41669	-705.98322	-785.9433	873.77594	-714.2254	-956.49164	976.883	-1124.91064	-957.16119	951.90662	-866.34808	-1167.94629	1013.81903	-1042.19543	-1171.65295	1010.83246	-928.73584	-954.16504	680.19861	-1211.49768	-905.54065	485.15775	-1192.48767	-882.67639	294.02353	-1208.41589	-782.18872	90.6199	-1205.60193	-799.07574	50.4457	-1153.50732	-624.85382	103.09147	-1222.53516	-1077.8999	650.08124	-816.52643	-1124.36304	445.03036	-861.26007	-1208.77173	275.72614	-851.88293	-1275.21899	91.96709	-888.37817	-1323.60352	39.34995	-940.44891	-1129.08972	30.20152	-889.19281	-1033.16553	1784.10681	-975.34149	2845.18018	1033.7395	-3360.26904	NaN	NaN	NaN
25	0.24	-921.62775	1719.64819	-1067.90967	-923.98761	1700.87439	-922.21136	-1048.10034	1641.89868	-1077.76526	-1065.88647	1621.08545	-936.55933	-1104.41223	1507.3208	-997.43414	-1174.28784	1236.75476	-984.41992	-970.10803	1429.99097	-1017.53717	-928.30981	1255.89453	-1003.38086	-1164.73096	1341.7793	-921.43713	-1048.51892	1469.89502	-1182.51733	-1094.29248	1275.89771	-1262.40833	-1120.12366	1138.08398	-1282.40625	-1112.5752	1005.49353	-1304.00623	-1046.29211	883.20337	-1292.71252	-1099.13452	883.02917	-1312.43701	-1076.83984	820.73883	-1323.0918	-1004.51416	1476.18335	-819.42749	-992.28455	1285.21179	-728.36133	-941.35809	1144.80188	-715.15259	-875.26288	1042.11169	-712.60779	-794.56342	939.47882	-750.3064	-830.96954	919.35431	-709.97803	-774.25232	874.47705	-718.67279	-946.62164	975.75201	-1126.53259	-949.5152	950.53711	-867.65344	-1158.73901	1012.36188	-1044.63416	-1162.95728	1009.40771	-931.22211	-942.08069	679.38464	-1213.38757	-894.50854	484.39078	-1193.88342	-872.87225	293.02393	-1209.78906	-774.58881	88.8656	-1206.02258	-792.93268	49.30544	-1154.27075	-617.76752	99.28292	-1222.62219	-1072.16101	649.5047	-817.79968	-1119.4137	444.51581	-862.0249	-1206.27246	276.34702	-852.55969	-1274.51892	93.20503	-888.74548	-1323.24011	41.14681	-940.93799	-1129.12207	30.13202	-889.05591	-1025.00073	1782.80603	-977.85059	2845.12573	1033.81152	-3360.35669	NaN	NaN	NaN
26	0.25	-913.27808	1718.6228	-1070.37012	-915.64838	1699.74133	-924.88507	-1039.44141	1640.67053	-1080.35437	-1057.5094	1620.16589	-939.26898	-1095.61975	1506.01978	-1000.15729	-1165.43481	1235.47144	-986.98157	-961.43213	1428.7417	-1019.8783	-919.42053	1254.8999	-1005.37244	-1158.74597	1341.43237	-923.11523	-1039.84607	1468.26685	-1185.11584	-1086.51111	1274.58386	-1264.44482	-1114.08057	1137.14795	-1284.12878	-1108.68445	1004.14087	-1305.63281	-1044.63354	880.24725	-1293.67627	-1097.35461	881.43597	-1313.99451	-1076.4292	818.50195	-1324.15283	-996.45288	1475.09033	-821.87158	-983.69037	1284.22559	-730.91241	-932.59003	1143.71411	-717.74847	-865.64532	1041.83276	-715.40222	-784.11493	939.8504	-753.91162	-820.21399	919.15851	-714.17084	-763.43793	875.20618	-723.08502	-936.44458	974.91302	-1128.46252	-940.81836	949.12756	-869.32825	-1149.35632	1011.01831	-1047.16931	-1154.03601	1008.14075	-933.92548	-930.44794	678.763	-1214.74524	-883.55908	483.60782	-1195.16125	-863.68103	291.96802	-1211.08704	-768.37994	87.0333	-1206.44238	-787.53973	47.53631	-1154.66296	-611.47839	95.37254	-1222.65906	-1066.21277	649.06256	-819.18823	-1114.39258	444.13245	-862.57196	-1203.37134	277.08145	-853.08057	-1273.7793	94.66486	-888.87262	-1322.7887	43.21159	-941.23108	-1129.01746	30.02997	-888.88995	-1016.77179	1781.71863	-980.5191	2845.19995	1033.62952	-3360.30762	NaN	NaN	NaN
27	0.26	-902.20526	1716.99768	-1070.01697	-907.23395	1698.95044	-927.35345	-1030.84717	1639.76758	-1083.14734	-1049.07935	1619.11121	-941.98834	-1087.15576	1505.02173	-1002.84424	-1156.41199	1234.28101	-989.70831	-952.66583	1427.7981	-1022.3833	-910.43005	1254.08191	-1007.40552	-1148.40906	1339.82678	-926.56226	-1030.99133	1466.59497	-1187.72168	-1079.13647	1273.00745	-1266.61072	-1107.30615	1135.65344	-1285.74683	-1104.62305	1002.99213	-1307.1748	-1042.98792	877.93811	-1294.84998	-1095.48682	880.10358	-1315.57434	-1075.98901	816.51025	-1325.27136	-988.0639	1474.22058	-824.30396	-976.29089	1283.20471	-733.44427	-924.01178	1142.73218	-720.41498	-856.43524	1041.18457	-719.0257	-773.87976	940.22876	-758.00177	-810.00287	918.99268	-718.52173	-752.35077	875.64893	-727.4718	-926.17712	974.20502	-1130.67078	-932.41998	947.8985	-871.21881	-1139.66992	1009.82404	-1049.91882	-1144.86548	1007.05463	-936.8363	-918.97034	678.17804	-1216.42334	-872.70544	482.90533	-1196.4895	-855.02173	290.90695	-1212.32837	-763.21515	84.72526	-1206.41943	-783.11053	45.21254	-1154.70618	-606.44141	91.17733	-1222.57007	-1059.81775	648.64551	-820.68994	-1108.776	443.87915	-863.02258	-1200.17615	277.92627	-853.56104	-1272.92529	96.40693	-888.78021	-1322.3512	45.63605	-941.05133	-1128.68738	29.89956	-888.62329	-1008.13763	1780.52734	-982.97656	2845.84937	1033.97021	-3357.32861	NaN	NaN	NaN
